PathFileType	4	(X/Y/Z)	C:/Users/opensim2020/Desktop/walking_exp_matlab/subject03_walking16_run.trc																																																																																																																																																	
DataRate	CameraRate	NumFrames	NumMarkers	Units	OrigDataRate	OrigDataStartFrame	OrigNumFrames																																																																																																																																													
100	100	8	49	mm	100	289	131																																																																																																																																													
Frame#	Time	RKNE			RTOE			RWRB			LTHI			RELB			RFRM			RUPA			RASI			LTIB			RWRA			RTHI			LSHO			LTOE			RTIB			LWRA			CLAV			LASI			RSHO			RFHD			STRN			LHEE			RFIN			RBHD			LFRM			C7			LWRB			LFIN			LUPA			LBHD			LELB			RANK			RHEE			RBAK			LPSI			T10			LFHD			RPSI			LKNE			LANK			*39			*40			*41			*42			*43			*44			*45			*46			*47			*48		
		X1	Y1	Z1	X2	Y2	Z2	X3	Y3	Z3	X4	Y4	Z4	X5	Y5	Z5	X6	Y6	Z6	X7	Y7	Z7	X8	Y8	Z8	X9	Y9	Z9	X10	Y10	Z10	X11	Y11	Z11	X12	Y12	Z12	X13	Y13	Z13	X14	Y14	Z14	X15	Y15	Z15	X16	Y16	Z16	X17	Y17	Z17	X18	Y18	Z18	X19	Y19	Z19	X20	Y20	Z20	X21	Y21	Z21	X22	Y22	Z22	X23	Y23	Z23	X24	Y24	Z24	X25	Y25	Z25	X26	Y26	Z26	X27	Y27	Z27	X28	Y28	Z28	X29	Y29	Z29	X30	Y30	Z30	X31	Y31	Z31	X32	Y32	Z32	X33	Y33	Z33	X34	Y34	Z34	X35	Y35	Z35	X36	Y36	Z36	X37	Y37	Z37	X38	Y38	Z38	X39	Y39	Z39	X40	Y40	Z40	X41	Y41	Z41	X42	Y42	Z42	X43	Y43	Z43	X44	Y44	Z44	X45	Y45	Z45	X46	Y46	Z46	X47	Y47	Z47	X48	Y48	Z48	X49	Y49	Z49
																																																																																																																																																				
99	0.98	1620.9104	437.42346	380.29074	1285.22876	140.95961	359.6214	1544.54761	871.99268	462.69028	1507.68127	598.16888	95.10777	1404.97522	1041.79346	511.31863	1486.16089	945.26727	485.02121	1413.59424	1139.53162	487.14633	1534.12708	887.18622	360.53555	1452.75122	250.85414	160.37534	1559.66919	909.75507	426.02008	1542.54492	601.93372	413.50803	1505.12634	1335.05664	77.988	1486.71362	32.97713	248.86992	1462.27856	354.53085	393.79129	1619.67224	958.98431	126.66196	1551.19397	1298.30627	233.0034	1522.38049	892.51184	125.25795	1495.4574	1326.87085	390.7291	1504.63806	1591.58972	308.45782	1589.73499	1128.78064	230.59419	1294.62317	55.1831	249.62587	1613.25635	857.3075	447.15369	1406.87134	1506.87354	291.16278	1572.17493	1007.16736	23.00119	1422.2074	1369.5177	225.10249	1651.25977	954.02179	77.28229	1687.14978	894.95099	134.92488	1487.84497	1160.8562	-26.38219	1424.07007	1508.29333	161.28181	1492.22449	1054.38696	-45.16494	1259.02063	278.56693	370.0567	1204.05945	301.32083	321.83179	1366.94141	1204.4613	318.17941	1364.27881	930.98645	183.13542	1379.79199	1066.29016	243.89909	1527.5188	1594.26648	177.1297	1374.15625	929.586	333.72522	1550.72351	425.99448	144.80823	1348.09595	75.85339	214.39374	NaN	NaN	NaN	NaN	NaN	NaN	NaN	NaN	NaN	NaN	NaN	NaN	NaN	NaN	NaN	NaN	NaN	NaN	NaN	NaN	NaN	1420.65808	1617.22083	214.68918	NaN	NaN	NaN	NaN	NaN	NaN
100	0.99	1669.45044	450.81522	378.08322	1358.75598	129.13042	356.293	1556.18848	878.71637	464.5271	1526.36267	597.89404	94.9362	1419.75671	1051.76355	510.46518	1499.08301	953.4187	486.17294	1433.00952	1148.84045	485.91891	1564.96606	891.10089	360.2699	1457.96826	252.40468	159.57387	1573.31311	916.55591	429.34497	1580.28589	609.77887	409.99048	1536.67493	1340.09229	77.89429	1486.34644	32.62608	248.87267	1517.1936	355.05872	391.65433	1664.69958	979.18573	137.3051	1581.92932	1302.39648	233.93341	1553.09692	895.54291	123.64089	1523.06372	1331.62988	390.56479	1535.86389	1596.20776	307.47266	1621.01733	1133.09399	231.25926	1295.40991	61.35888	248.82869	1625.13049	862.72931	452.28836	1438.0282	1511.55322	290.57663	1614.7323	1017.50885	30.94528	1452.75964	1373.34485	224.31244	1695.79199	971.36414	88.55243	1736.10693	921.71967	150.67384	1523.51733	1163.88684	-24.28573	1455.51428	1511.97913	160.74834	1533.00708	1057.18188	-39.56704	1319.90149	263.53857	368.36911	1262.55835	281.68604	320.36176	1396.24902	1209.17578	316.42108	1396.43176	934.35229	182.27815	1410.95166	1069.77747	242.2178	1559.06604	1597.8877	176.19502	1406.43738	933.85944	332.35901	1562.04639	424.52008	144.36272	1349.28552	80.02318	213.62622	NaN	NaN	NaN	NaN	NaN	NaN	NaN	NaN	NaN	NaN	NaN	NaN	NaN	NaN	NaN	NaN	NaN	NaN	NaN	NaN	NaN	1452.17834	1621.31641	213.27345	NaN	NaN	NaN	NaN	NaN	NaN
101	1	1715.82776	465.38971	375.88522	1433.40466	118.10012	353.83408	1568.95703	887.9176	465.8233	1545.11182	599.72931	94.55432	1435.41296	1063.31677	509.11832	1512.68787	963.81207	486.29147	1453.453	1159.30994	484.38623	1596.52002	896.04712	360.39728	1463.12195	255.89299	158.91016	1588.22021	925.72516	431.26205	1617.84851	618.33325	406.42319	1568.44897	1346.01331	78.30354	1486.21057	32.27713	248.94417	1570.87695	356.25372	389.22336	1706.91406	1001.90155	147.20059	1612.51917	1307.50745	234.92374	1584.32312	899.08203	122.15061	1550.72253	1337.67126	390.11798	1567.11743	1601.87903	306.57068	1652.36707	1138.51001	232.22038	1297.45081	69.72166	248.17769	1638.07788	870.90411	456.27853	1469.01147	1517.44543	290.13959	1655.84875	1030.04187	38.65162	1483.63586	1378.32605	223.2464	1738.19592	990.78082	99.33492	1781.93298	951.70721	165.15746	1558.82153	1168.14941	-22.01827	1486.82654	1516.82593	160.27802	1572.87378	1061.90234	-34.12759	1381.7876	247.73454	365.60181	1323.09387	260.40146	317.86652	1425.81226	1214.7052	315.02692	1428.2373	938.73004	181.04649	1442.58521	1074.20801	240.59956	1590.54822	1602.43799	175.37816	1437.67798	939.02179	330.95862	1572.18848	424.34802	143.5479	1351.15149	86.14771	213.08041	NaN	NaN	NaN	NaN	NaN	NaN	NaN	NaN	NaN	NaN	NaN	NaN	NaN	NaN	NaN	NaN	NaN	NaN	NaN	NaN	NaN	1483.86108	1626.45068	212.06873	NaN	NaN	NaN	NaN	NaN	NaN
102	1.01	1759.86792	480.23444	373.94003	1509.44543	107.65998	350.24609	1583.15027	898.71503	466.26819	1564.73938	603.50116	93.99073	1452.09021	1076.1261	507.20181	1527.62646	975.80139	485.62616	1474.89368	1170.60559	482.59109	1627.15601	901.43457	359.13718	1468.99634	261.92532	157.57298	1604.05603	936.29547	432.87411	1654.88135	627.53973	403.14499	1600.22339	1352.85583	78.95045	1486.63892	32.24806	248.85196	1623.11523	357.60504	386.77963	1747.10388	1026.90271	155.99597	1642.90845	1313.47046	235.93073	1616.4425	903.50989	120.9469	1578.33044	1344.58948	389.61002	1598.56775	1608.23804	305.97272	1683.77808	1144.79407	233.31007	1300.71851	80.39115	248.00439	1652.20532	880.81726	459.65265	1499.896	1524.19287	289.71844	1695.27539	1044.10583	46.03321	1514.24048	1383.92615	222.10677	1778.49121	1011.80548	109.62596	1824.48315	983.59442	178.20729	1594.41431	1173.58142	-19.40064	1517.86157	1522.50232	159.97189	1611.97485	1067.87024	-28.77845	1444.94336	231.15778	362.10205	1385.02332	238.1785	313.74576	1455.11646	1220.51758	313.34909	1460.63757	943.81091	179.57475	1474.18335	1079.34814	238.9679	1621.98145	1607.77515	174.62793	1469.37097	945.28485	329.14304	1582.86108	426.9126	141.9312	1354.20789	94.24856	212.8598	NaN	NaN	NaN	NaN	NaN	NaN	NaN	NaN	NaN	NaN	NaN	NaN	NaN	NaN	NaN	NaN	NaN	NaN	NaN	NaN	NaN	1515.54675	1632.60938	210.99815	NaN	NaN	NaN	NaN	NaN	NaN
103	1.02	1801.02832	494.12598	371.85727	1586.52148	98.1491	345.7941	1598.66602	910.46075	466.21146	1585.95532	608.83148	93.29156	1469.96179	1089.84045	504.88571	1543.81738	988.62378	484.59488	1497.15991	1182.52783	480.73917	1659.17493	908.80402	358.14536	1476.46106	270.23965	156.19804	1620.45972	947.61328	433.465	1691.54114	637.18298	400.55048	1631.9093	1360.56445	79.79091	1486.94385	31.85658	249.03162	1674.17639	358.43301	384.25122	1785.04297	1053.27637	163.49345	1673.10693	1320.104	236.91267	1649.20105	908.84894	120.07483	1606.17078	1352.20056	388.9982	1629.60229	1615.07043	304.94019	1715.08362	1151.75562	234.59641	1305.89368	93.18424	247.94487	1667.64539	892.02362	462.10962	1530.8562	1531.6106	289.53445	1733.31299	1059.41992	52.93667	1544.40747	1389.9281	221.08025	1816.62878	1033.82275	119.38841	1864.05237	1016.48077	189.75256	1630.45288	1179.72412	-15.9421	1548.76929	1528.9408	159.68379	1650.23645	1075.02612	-23.58805	1509.57166	214.28639	358.13666	1449.50696	215.81189	309.66962	1484.5498	1226.84912	311.36572	1493.47668	949.64819	178.09288	1505.9762	1084.93213	237.31718	1653.31445	1613.67664	173.90627	1500.78906	951.50378	327.34747	1594.49451	431.32907	140.23462	1359.06506	104.39715	212.34111	NaN	NaN	NaN	NaN	NaN	NaN	NaN	NaN	NaN	NaN	NaN	NaN	NaN	NaN	NaN	NaN	NaN	NaN	NaN	NaN	NaN	1547.10303	1639.11902	210.35529	NaN	NaN	NaN	NaN	NaN	NaN
104	1.03	1839.56189	506.63812	369.91312	1664.01782	89.86304	340.85538	1615.6759	922.84503	465.77594	1609.14685	615.47229	92.10253	1488.84766	1103.86633	502.13531	1561.32227	1001.85968	483.14682	1520.27698	1194.79614	478.89719	1692.26257	917.23895	357.37057	1485.39563	280.14288	154.71791	1638.29138	959.3786	433.21313	1728.01111	646.92859	398.61545	1663.51941	1368.84265	80.71481	1487.65918	31.72652	248.99205	1724.42065	358.15863	381.8266	1820.99146	1080.27405	169.44202	1703.13318	1327.18518	237.93091	1682.64038	915.00934	119.63558	1634.36157	1360.18115	388.336	1660.76367	1622.27759	304.11829	1745.8988	1159.09595	235.96477	1313.66101	107.40139	247.86017	1684.15955	903.68378	463.96835	1561.46448	1539.25586	288.94504	1769.94958	1075.30713	59.21487	1574.31836	1396.23828	220.20703	1852.93372	1056.6084	128.22614	1900.82922	1049.33594	199.73346	1666.67676	1186.82227	-12.17412	1579.53638	1535.80896	159.40581	1687.68628	1083.01599	-18.61786	1575.56384	197.53195	353.94351	1515.97803	193.40558	305.27615	1513.71448	1233.82373	308.97504	1526.75476	955.56409	176.70235	1537.8186	1090.78357	235.51086	1684.52051	1619.9834	173.17825	1532.80835	957.84381	325.56485	1608.37085	438.08191	138.24727	1365.54712	116.13807	212.15955	NaN	NaN	NaN	NaN	NaN	NaN	NaN	NaN	NaN	NaN	NaN	NaN	NaN	NaN	NaN	NaN	NaN	NaN	NaN	NaN	NaN	1578.63892	1646.43909	209.32838	NaN	NaN	NaN	NaN	NaN	NaN
105	1.04	1875.7345	517.23981	367.54932	1741.71948	82.86895	335.25708	1633.76526	935.09082	464.64676	1633.90454	622.86163	90.81802	1509.41833	1118.14026	499.59586	1580.26831	1015.05084	481.32632	1543.93994	1207.20935	477.07166	1725.84119	925.4353	356.58658	1495.90125	291.0799	153.29926	1657.59387	971.37225	432.74008	1764.29138	656.57062	397.10321	1695.10632	1377.54163	81.88715	1488.81384	31.74061	248.67313	1774.17395	356.84811	379.42899	1855.15149	1107.20679	173.92833	1733.05286	1334.4729	238.85117	1716.88855	921.29462	119.42274	1662.64673	1368.49731	387.73395	1691.81665	1629.54553	303.14694	1777.0321	1166.6853	237.32452	1324.17712	122.34142	247.78859	1701.875	915.37134	465.26376	1592.40259	1547.24854	288.93149	1805.38965	1091.33582	64.87913	1604.16565	1402.79285	219.51141	1887.27527	1079.28845	136.34302	1935.21387	1081.31824	208.21278	1702.79333	1194.49194	-8.22094	1610.15869	1542.77454	159.14035	1724.28601	1091.64026	-13.78545	1642.9259	181.27975	349.66641	1583.80835	171.83278	300.83536	1543.55396	1241.05798	306.5484	1560.48767	962.04541	175.44984	1569.74585	1096.77051	233.63049	1715.5979	1626.38306	172.38148	1565.50427	964.49323	323.70697	1623.75793	445.27521	136.55417	1374.70593	128.33748	211.54083	NaN	NaN	NaN	NaN	NaN	NaN	NaN	NaN	NaN	NaN	NaN	NaN	NaN	NaN	NaN	NaN	NaN	NaN	NaN	NaN	NaN	1610.12378	1653.94568	208.29243	NaN	NaN	NaN	NaN	NaN	NaN
106	1.05	1910.06824	525.70728	364.8884	1818.90894	76.91457	328.78851	1653.17993	946.95691	462.96521	1659.61218	630.51117	89.45093	1530.89172	1131.85217	497.00009	1600.50574	1027.84888	479.36594	1568.36633	1219.67493	475.61392	1758.34253	933.99139	354.45911	1508.19849	302.47818	151.95361	1678.25	983.11536	431.95483	1800.31287	665.96082	395.98868	1726.24048	1386.05188	83.12322	1490.06555	31.62048	248.27106	1823.60681	354.71017	376.90515	1887.63782	1133.29346	177.16994	1762.93604	1341.73389	239.75214	1751.83093	927.84949	119.22383	1691.17261	1376.45837	386.98724	1723.05066	1636.60815	302.26749	1808.16174	1174.23462	238.68344	1337.49573	137.63083	247.47055	1720.61768	926.71735	466.11398	1622.66309	1554.948	288.27005	1839.76025	1107.35693	69.91744	1634.12146	1409.30688	218.9552	1920.0824	1101.69177	143.60492	1967.46973	1111.92456	215.44922	1738.57129	1202.61963	-4.24691	1640.62415	1549.63293	158.87605	1760.1051	1100.34033	-9.19072	1711.42346	166.11044	345.3959	1653.24634	152.20705	296.75058	1573.19861	1248.60437	304.16193	1594.73694	968.34497	174.35318	1601.97107	1102.95557	231.70461	1746.58752	1632.47144	171.50441	1598.95679	971.0575	321.88565	1640.97144	453.48679	134.59534	1386.19812	140.42705	210.81052	NaN	NaN	NaN	NaN	NaN	NaN	NaN	NaN	NaN	NaN	NaN	NaN	NaN	NaN	NaN	NaN	NaN	NaN	NaN	NaN	NaN	1641.37634	1661.05066	207.50032	NaN	NaN	NaN	NaN	NaN	NaN
